<svg width="25" height="28" viewBox="0 0 25 28" fill="none" xmlns="http://www.w3.org/2000/svg">
<path d="M6.17662 23.7222C5.6419 23.7222 5.18415 23.5318 4.80336 23.151C4.42257 22.7702 4.23218 22.3124 4.23218 21.7777V10.1111C4.23218 9.57633 4.42257 9.11858 4.80336 8.73779C5.18415 8.35701 5.6419 8.16661 6.17662 8.16661H8.12107C8.12107 7.09717 8.50185 6.18166 9.26343 5.42008C10.025 4.65851 10.9405 4.27772 12.01 4.27772C13.0794 4.27772 13.9949 4.65851 14.7565 5.42008C15.5181 6.18166 15.8988 7.09717 15.8988 8.16661H17.8433C18.378 8.16661 18.8358 8.35701 19.2166 8.73779C19.5973 9.11858 19.7877 9.57633 19.7877 10.1111V21.7777C19.7877 22.3124 19.5973 22.7702 19.2166 23.151C18.8358 23.5318 18.378 23.7222 17.8433 23.7222H6.17662ZM6.17662 21.7777H17.8433V10.1111H15.8988V12.0555C15.8988 12.331 15.8057 12.5619 15.6193 12.7482C15.433 12.9346 15.2021 13.0277 14.9266 13.0277C14.6512 13.0277 14.4203 12.9346 14.2339 12.7482C14.0476 12.5619 13.9544 12.331 13.9544 12.0555V10.1111H10.0655V12.0555C10.0655 12.331 9.97234 12.5619 9.786 12.7482C9.59965 12.9346 9.36875 13.0277 9.09329 13.0277C8.81783 13.0277 8.58692 12.9346 8.40058 12.7482C8.21424 12.5619 8.12107 12.331 8.12107 12.0555V10.1111H6.17662V21.7777ZM10.0655 8.16661H13.9544C13.9544 7.63189 13.764 7.17414 13.3832 6.79335C13.0024 6.41256 12.5447 6.22217 12.01 6.22217C11.4752 6.22217 11.0175 6.41256 10.6367 6.79335C10.2559 7.17414 10.0655 7.63189 10.0655 8.16661Z" fill="#0F172A"/>
</svg>
