<svg width="20" height="20" viewBox="0 0 20 20" fill="none" xmlns="http://www.w3.org/2000/svg">
<path d="M18.8 10.2084C18.8 9.55837 18.7417 8.93337 18.6333 8.33337H10V11.8834H14.9333C14.7167 13.025 14.0667 13.9917 13.0917 14.6417V16.95H16.0667C17.8 15.35 18.8 13 18.8 10.2084Z" fill="#4285F4"/>
<path d="M10 19.1667C12.475 19.1667 14.55 18.35 16.0667 16.95L13.0917 14.6417C12.275 15.1917 11.2333 15.525 10 15.525C7.61668 15.525 5.59168 13.9167 4.86668 11.75H1.81668V14.1167C3.32501 17.1083 6.41668 19.1667 10 19.1667Z" fill="#34A853"/>
<path d="M4.86668 11.7417C4.68334 11.1917 4.57501 10.6084 4.57501 10.0001C4.57501 9.39172 4.68334 8.80839 4.86668 8.25839V5.89172H1.81668C1.19168 7.12506 0.833344 8.51672 0.833344 10.0001C0.833344 11.4834 1.19168 12.8751 1.81668 14.1084L4.19168 12.2584L4.86668 11.7417Z" fill="#FBBC05"/>
<path d="M10 4.48337C11.35 4.48337 12.55 4.95004 13.5083 5.85004L16.1333 3.22504C14.5417 1.74171 12.475 0.833374 10 0.833374C6.41668 0.833374 3.32501 2.89171 1.81668 5.89171L4.86668 8.25837C5.59168 6.09171 7.61668 4.48337 10 4.48337Z" fill="#EA4335"/>
</svg>
