<svg width="28" height="32" viewBox="0 0 28 32" fill="none" xmlns="http://www.w3.org/2000/svg">
<path d="M21.9332 12.6666L20.5166 9.61106L17.4 8.22217L20.5166 6.83328L21.9332 3.77772L23.3499 6.83328L26.4665 8.22217L23.3499 9.61106L21.9332 12.6666ZM21.9332 28.2222L20.5166 25.1666L17.4 23.7777L20.5166 22.3888L21.9332 19.3333L23.3499 22.3888L26.4665 23.7777L23.3499 25.1666L21.9332 28.2222ZM10.6001 24.8888L7.7668 18.7777L1.53357 15.9999L7.7668 13.2222L10.6001 7.11106L13.4334 13.2222L19.6666 15.9999L13.4334 18.7777L10.6001 24.8888ZM10.6001 19.4999L11.7334 17.1111L14.17 15.9999L11.7334 14.8888L10.6001 12.4999L9.46677 14.8888L7.03015 15.9999L9.46677 17.1111L10.6001 19.4999Z" fill="currentColor"/>
</svg>
