<svg width="25" height="28" viewBox="0 0 25 28" fill="none" xmlns="http://www.w3.org/2000/svg">
<path d="M8.65584 21.7777H15.3642L16.3364 17.8888H7.68362L8.65584 21.7777ZM8.65584 23.7222C8.20214 23.7222 7.80515 23.5844 7.46487 23.309C7.12459 23.0335 6.89774 22.677 6.78432 22.2395L5.69057 17.8888H18.3295L17.2357 22.2395C17.1223 22.677 16.8954 23.0335 16.5551 23.309C16.2149 23.5844 15.8179 23.7222 15.3642 23.7222H8.65584ZM5.20445 15.9444H18.8156V13.9999H5.20445V15.9444ZM12.01 10.1111C12.01 8.49069 12.5771 7.11337 13.7114 5.97911C14.8457 4.84485 16.223 4.27772 17.8433 4.27772C17.8433 5.73606 17.3815 6.99994 16.4579 8.06939C15.5343 9.13883 14.3758 9.78698 12.9822 10.0138V12.0555H20.76V15.9444C20.76 16.4791 20.5696 16.9369 20.1888 17.3177C19.808 17.6984 19.3503 17.8888 18.8156 17.8888H5.20445C4.66973 17.8888 4.21198 17.6984 3.83119 17.3177C3.4504 16.9369 3.26001 16.4791 3.26001 15.9444V12.0555H11.0378V10.0138C9.64427 9.78698 8.4857 9.13883 7.56209 8.06939C6.63848 6.99994 6.17668 5.73606 6.17668 4.27772C7.79705 4.27772 9.17436 4.84485 10.3086 5.97911C11.4429 7.11337 12.01 8.49069 12.01 10.1111Z" fill="currentColor"/>
</svg>
