<svg width="25" height="28" viewBox="0 0 25 28" fill="none" xmlns="http://www.w3.org/2000/svg">
<path d="M12.0099 22.75L10.6002 21.4861C8.96365 20.0116 7.61064 18.7396 6.54119 17.6701C5.47175 16.6007 4.62105 15.6406 3.98911 14.7899C3.35716 13.9392 2.91561 13.1574 2.66446 12.4444C2.4133 11.7315 2.28772 11.0023 2.28772 10.2569C2.28772 8.7338 2.79814 7.46181 3.81897 6.44097C4.8398 5.42014 6.11179 4.90972 7.63494 4.90972C8.47753 4.90972 9.27962 5.08796 10.0412 5.44444C10.8028 5.80093 11.459 6.30324 12.0099 6.95139C12.5609 6.30324 13.2171 5.80093 13.9787 5.44444C14.7403 5.08796 15.5423 4.90972 16.3849 4.90972C17.9081 4.90972 19.1801 5.42014 20.2009 6.44097C21.2217 7.46181 21.7322 8.7338 21.7322 10.2569C21.7322 11.0023 21.6066 11.7315 21.3554 12.4444C21.1043 13.1574 20.6627 13.9392 20.0308 14.7899C19.3988 15.6406 18.5481 16.6007 17.4787 17.6701C16.4092 18.7396 15.0562 20.0116 13.4197 21.4861L12.0099 22.75ZM12.0099 20.125C13.5655 18.7315 14.8456 17.5365 15.8502 16.5399C16.8548 15.5434 17.6488 14.6765 18.2322 13.9392C18.8155 13.202 19.2206 12.5457 19.4474 11.9705C19.6743 11.3953 19.7877 10.8241 19.7877 10.2569C19.7877 9.28472 19.4636 8.47454 18.8155 7.82639C18.1673 7.17824 17.3572 6.85417 16.3849 6.85417C15.6234 6.85417 14.9185 7.06887 14.2704 7.49826C13.6222 7.92766 13.1766 8.47454 12.9336 9.13889H11.0863C10.8433 8.47454 10.3977 7.92766 9.74953 7.49826C9.10138 7.06887 8.39652 6.85417 7.63494 6.85417C6.66272 6.85417 5.85253 7.17824 5.20439 7.82639C4.55624 8.47454 4.23216 9.28472 4.23216 10.2569C4.23216 10.8241 4.34559 11.3953 4.57244 11.9705C4.79929 12.5457 5.20439 13.202 5.78772 13.9392C6.37105 14.6765 7.16503 15.5434 8.16966 16.5399C9.17429 17.5365 10.4544 18.7315 12.0099 20.125Z" fill="currentColor"/>
</svg>
