<svg width="16" height="18" viewBox="0 0 16 18" fill="none" xmlns="http://www.w3.org/2000/svg">
<path d="M8 9C6.9 9 5.95833 8.55937 5.175 7.67813C4.39167 6.79688 4 5.7375 4 4.5C4 3.2625 4.39167 2.20312 5.175 1.32187C5.95833 0.440626 6.9 0 8 0C9.1 0 10.0417 0.440626 10.825 1.32187C11.6083 2.20312 12 3.2625 12 4.5C12 5.7375 11.6083 6.79688 10.825 7.67813C10.0417 8.55937 9.1 9 8 9ZM0 18V14.85C0 14.2125 0.145833 13.6266 0.4375 13.0922C0.729167 12.5578 1.11667 12.15 1.6 11.8688C2.63333 11.2875 3.68333 10.8516 4.75 10.5609C5.81667 10.2703 6.9 10.125 8 10.125C9.1 10.125 10.1833 10.2703 11.25 10.5609C12.3167 10.8516 13.3667 11.2875 14.4 11.8688C14.8833 12.15 15.2708 12.5578 15.5625 13.0922C15.8542 13.6266 16 14.2125 16 14.85V18H0ZM2 15.75H14V14.85C14 14.6438 13.9542 14.4563 13.8625 14.2875C13.7708 14.1188 13.65 13.9875 13.5 13.8938C12.6 13.3875 11.6917 13.0078 10.775 12.7547C9.85833 12.5016 8.93333 12.375 8 12.375C7.06667 12.375 6.14167 12.5016 5.225 12.7547C4.30833 13.0078 3.4 13.3875 2.5 13.8938C2.35 13.9875 2.22917 14.1188 2.1375 14.2875C2.04583 14.4563 2 14.6438 2 14.85V15.75ZM8 6.75C8.55 6.75 9.02083 6.52969 9.4125 6.08906C9.80417 5.64844 10 5.11875 10 4.5C10 3.88125 9.80417 3.35156 9.4125 2.91094C9.02083 2.47031 8.55 2.25 8 2.25C7.45 2.25 6.97917 2.47031 6.5875 2.91094C6.19583 3.35156 6 3.88125 6 4.5C6 5.11875 6.19583 5.64844 6.5875 6.08906C6.97917 6.52969 7.45 6.75 8 6.75Z" fill="currentColor"/>
</svg>
